<svg width="90" height="90" viewBox="0 0 90 90" fill="none" xmlns="http://www.w3.org/2000/svg">
<path d="M63.8494 12.1022L58.8642 5.6925C56.7464 2.96859 53.5514 1.40625 50.1019 1.40625C48.3862 1.40625 46.6706 1.81125 45.1364 2.57766L45 2.64656L44.8636 2.57906C43.3294 1.81125 41.6138 1.40625 39.8981 1.40625C36.4486 1.40625 33.2536 2.96859 31.1358 5.6925L26.1506 12.1022C24.7022 13.9613 23.9062 16.283 23.9062 18.6398C23.9062 20.4891 24.3914 22.3158 25.3097 23.9217L28.0969 28.8C29.3189 30.9417 31.6125 32.3002 34.103 32.3438H34.5741C34.0467 31.0402 33.75 29.6184 33.75 28.125V21.9909C33.75 19.7409 35.0916 17.7075 37.1587 16.8202L43.4419 14.1272L43.4053 14.0625C44.8959 16.6472 47.6691 18.2812 50.7122 18.2812H54.8438L54.8283 18.2517C55.7269 19.2628 56.25 20.5847 56.25 21.9909V28.125C56.25 29.6184 55.9533 31.0402 55.4245 32.3438H55.9083H55.9209C58.3875 32.3002 60.6811 30.9431 61.9031 28.8014L64.6903 23.9231C65.6086 22.3158 66.0938 20.4891 66.0938 18.6398C66.0938 16.283 65.2978 13.9613 63.8494 12.1022Z" fill="#EE7F22"/>
<path d="M67.5 68.9062C58.9711 68.9062 52.0312 61.9664 52.0312 53.4375C52.0312 44.9086 58.9711 37.9688 67.5 37.9688C76.0289 37.9688 82.9688 44.9086 82.9688 53.4375C82.9688 61.9664 76.0289 68.9062 67.5 68.9062Z" fill="#EE7F22"/>
<path d="M80.9086 64.8591L79.38 63.3291C78.7781 64.0505 78.113 64.7156 77.3916 65.3175L78.9202 66.8475C79.7062 67.6322 80.1562 68.7192 80.1562 69.8302V85.7812H54.8438V85.6392C56.5495 85.2919 58.012 84.3089 59.0259 82.9688H77.3438V71.7188H56.9039V72.6694C56.2739 72.308 55.5989 72.0169 54.8662 71.865L54.9042 69.6952C54.9225 68.5969 55.3613 67.5633 56.1389 66.7856L57.6084 65.3161C56.887 64.7142 56.2219 64.0491 55.62 63.3277L54.1505 64.7972C52.8539 66.0923 52.1241 67.815 52.0917 69.6473L52.0552 71.7188H51.7978L49.0655 56.6859C49.5562 56.2838 49.957 55.7831 50.227 55.2009L52.4588 56.9869C52.3294 56.4398 52.2267 55.8844 52.1578 55.3177C52.1536 55.2853 52.1466 55.253 52.1438 55.2206C52.0748 54.6342 52.0312 54.0408 52.0312 53.4375C52.0312 52.958 52.0566 52.4855 52.103 52.0186C52.1452 51.5602 52.2127 51.1088 52.2942 50.6616L51.4659 52.5923L47.4567 49.3847L52.2394 46.5159L53.5177 46.8647C53.9367 45.9788 54.4345 45.1392 55.0055 44.3545L53.2392 43.8722L52.1733 38.5411C55.4808 36.2545 57.6562 32.4408 57.6562 28.125V21.9909C57.6562 21.0277 57.4411 20.0939 57.0684 19.2248C59.0653 18.3614 60.4688 16.3744 60.4688 14.0625C60.4688 10.9603 57.9459 8.4375 54.8438 8.4375C51.7416 8.4375 49.2188 10.9603 49.2188 14.0625H52.0312C52.0312 12.5114 53.2927 11.25 54.8438 11.25C56.3948 11.25 57.6562 12.5114 57.6562 14.0625C57.6562 15.6136 56.3948 16.875 54.8438 16.875H50.7122C47.8195 16.875 45.2573 15.1397 44.183 12.4552L43.4925 10.7269L40.8811 11.7703L41.5378 13.4128L36.6061 15.5264C34.0158 16.6373 32.3438 19.1728 32.3438 21.9909V28.125C32.3438 32.4408 34.5192 36.2545 37.8267 38.5411L36.7608 43.8722L28.3289 46.1714C24.0005 47.3512 20.1698 49.7756 17.2533 53.1816C14.2889 56.6367 12.6562 61.0495 12.6562 65.603V81.5625C12.6562 85.4395 15.8105 88.5938 19.6875 88.5938H46.4062C47.9573 88.5938 49.2188 87.3323 49.2188 85.7812H52.0312V88.5938H82.9688V69.8302C82.9688 67.9528 82.2361 66.1866 80.9086 64.8591ZM59.7164 74.5312H74.5312V80.1562H60.3267C60.4195 79.702 60.4688 79.2309 60.4688 78.75C60.4688 77.632 60.1819 76.5886 59.7164 75.6492V74.5312ZM47.8125 53.2702V53.4375C47.8125 54.2123 47.1825 54.8438 46.4062 54.8438H43.5938C42.8175 54.8438 42.1875 54.2123 42.1875 53.4375V53.2702L45 51.0202L47.8125 53.2702ZM45 47.5791L39.5423 44.3039L40.4212 39.9108C41.843 40.4648 43.3842 40.7812 45 40.7812C46.6158 40.7812 48.157 40.4648 49.5788 39.9108L50.4577 44.3039L45 47.5791ZM35.1562 28.125V21.9909C35.1562 20.3006 36.1603 18.7791 37.7128 18.1125L42.9398 15.8723C44.7708 18.2433 47.6002 19.6875 50.7136 19.6875H54.1477C54.5934 20.3695 54.8438 21.1655 54.8438 21.9909V28.125C54.8438 33.5531 50.4267 37.9688 45 37.9688C39.5733 37.9688 35.1562 33.5531 35.1562 28.125ZM37.7606 46.5145L42.5433 49.3833L38.5341 52.5909L36.1209 46.9617L37.7606 46.5145ZM46.4062 85.7812H19.6875C17.3616 85.7812 15.4688 83.8884 15.4688 81.5625V65.603C15.4688 61.7203 16.8595 57.9586 19.388 55.0111C21.9375 52.0341 25.2844 49.9163 29.0672 48.8855L33.3802 47.7098L37.4034 57.0966L39.773 55.2009C40.043 55.7831 40.4437 56.2838 40.9345 56.6859L38.2022 71.7188H26.7188V64.6875H23.9062V71.7188H21.0938V74.5312H46.4062V85.7812ZM41.0597 71.7188L43.6163 57.6562H46.3852L48.9417 71.7188H41.0597ZM49.2188 82.9688V74.5312H53.4375C55.7634 74.5312 57.6562 76.4241 57.6562 78.75C57.6562 81.0759 55.7634 82.9688 53.4375 82.9688H49.2188Z" fill="black"/>
<path d="M70.6685 49.8037H69.5739C69.5015 49.1693 69.2805 48.5754 68.9299 48.1157H70.6685C71.0849 48.1157 71.4222 47.8048 71.4222 47.3884C71.4222 46.9719 71.0849 46.6524 70.6685 46.6524H64.7729C64.7513 46.6524 64.7305 46.6516 64.7084 46.6516C64.694 46.6516 64.6797 46.6524 64.6653 46.6524H61.8548C61.4383 46.6524 61.1011 46.9721 61.1011 47.3884C61.1011 47.8047 61.4383 48.1157 61.8548 48.1157H65.1972C66.2528 48.1926 67.3584 48.6009 67.6497 49.8037H61.8548C61.4383 49.8037 61.1011 50.1412 61.1011 50.5577C61.1011 50.974 61.4383 51.3117 61.8548 51.3117H67.5746C67.2187 52.2622 66.2412 52.8419 64.8827 52.8419H63.3837H63.3794H62.5053C62.0993 52.8419 61.7702 53.171 61.7702 53.577C61.7702 53.9831 62.0993 54.3122 62.5053 54.3122H63.369C63.3726 54.3126 63.3758 54.3144 63.3793 54.3144H64.7433C66.2253 54.3707 66.8845 55.0133 67.2624 56.7715C67.5581 58.0775 67.7758 58.9281 67.947 59.4376C68.0753 59.909 68.3292 60.6191 68.7696 61.0433C68.9418 61.2089 69.164 61.2914 69.3853 61.2914C69.6183 61.2914 69.8513 61.2002 70.0256 61.0189C70.3452 60.6868 70.351 60.1729 70.0582 59.8294C70.0568 59.8254 70.0574 59.8209 70.0553 59.8169C69.7849 59.3153 69.4579 57.9701 69.0589 56.2637C68.7417 54.8763 68.1492 54.0121 67.2514 53.6284C68.3787 53.1956 69.1543 52.3678 69.4583 51.3115H70.6685C71.0849 51.3115 71.4221 50.9738 71.4221 50.5575C71.4221 50.1412 71.085 49.8037 70.6685 49.8037Z" fill="black"/>
</svg>
