<svg width="138" height="94" viewBox="0 0 138 94" fill="none" xmlns="http://www.w3.org/2000/svg">
<rect x="106.913" y="4" width="28" height="27" fill="#EE7F22"/>
<path d="M18.9131 92.0001C18.9131 92.5227 19.1177 93.0454 19.504 93.4091C19.8677 93.7726 20.3905 94 20.9131 94C21.4359 94 21.9587 93.7954 22.3222 93.4091C22.6859 93.0454 22.9131 92.5227 22.9131 92.0001C22.9131 91.4773 22.7087 90.9546 22.3222 90.5909C21.9587 90.2274 21.4359 90 20.9131 90C20.3905 90 19.8677 90.2046 19.504 90.5909C19.1177 90.9546 18.9131 91.4773 18.9131 92.0001Z" fill="black"/>
<path d="M80.3398 43.4839C80.3398 44.433 81.1109 45.2239 82.0799 45.2239H87.0431C87.9921 45.2239 88.7831 44.4527 88.7831 43.4839C88.7831 42.5346 88.0118 41.7437 87.0431 41.7437H82.0799C81.1308 41.7437 80.3398 42.5149 80.3398 43.4839Z" fill="black"/>
<path d="M25.3458 51.4796C20.9281 52.2159 18.5964 56.0814 17.9829 57.9221L22.5847 60.6832C27.1866 60.9901 37.1265 61.0514 40.0717 58.8425C43.0169 56.6336 41.2989 53.0134 40.0717 51.4796C37.0038 51.1727 29.7636 50.7433 25.3458 51.4796Z" fill="white"/>
<path d="M36.2846 60.6076H27.5645C27.5645 60.6076 16.6692 59.2829 12.4377 62.3873C8.20623 65.4917 3.57918 72.1752 2.78825 74.6863C1.99731 77.1976 1.85889 81.9631 1.85889 81.9631L14.415 81.7059L49.2954 81.7851L59.2021 81.9631L65.2132 75.0819L87.2211 73.3023C87.2211 73.3023 86.7663 66.5595 82.5348 65.3137C78.3032 64.068 74.0717 63.0002 74.0717 63.0002L69.1877 53.5484L65.5493 42.4556C65.5493 42.4556 61.7923 41.5855 61.5748 41.7635C61.3771 41.9415 59.8546 44.5714 59.8546 45.5008C59.8546 46.43 60.25 58.8477 60.25 58.8477L62.168 67.4294C62.168 67.4294 57.541 72.6497 57.3433 72.8474C57.1456 73.0451 51.866 75.8925 51.866 75.8925L39.567 74.884C39.567 74.884 36.7195 67.212 36.7195 66.6979C36.7195 66.1838 36.2846 60.6076 36.2846 60.6076Z" fill="#EE7F22"/>
<path d="M62.148 35.7917L49.6313 37.0376L51.6087 40.4188L64.501 40.7352L65.7862 39.272L65.2325 36.4047L62.148 35.7917Z" fill="#EE7F22"/>
<path d="M0 92.1859C0 93.135 0.771156 93.926 1.74006 93.926H21.296C21.3553 93.926 21.4345 93.926 21.4937 93.926C21.5532 93.926 21.6322 93.926 21.6914 93.926H38.5582C39.5075 93.926 40.2983 93.1547 40.2983 92.1859C40.2983 91.217 39.5272 90.4457 38.5582 90.4457H29.9964C31.855 88.6267 33.1404 86.2142 33.5161 83.5251H58.4306C58.8855 83.5251 59.3403 83.3471 59.6565 83.011L65.3711 77.3161C64.8176 78.72 64.5012 80.2427 64.5012 81.7851C64.5012 85.1663 65.9051 88.251 68.1593 90.4457H51.9647C51.0156 90.4457 50.2246 91.217 50.2246 92.1859C50.2246 93.1547 50.9959 93.926 51.9647 93.926H76.4444C76.5037 93.926 76.5828 93.926 76.6421 93.926C76.7014 93.926 76.7805 93.926 76.8398 93.926H87.043C87.9921 93.926 88.783 93.1547 88.783 92.1859C88.783 91.217 88.0117 90.4457 87.043 90.4457H85.1249C87.3791 88.251 88.783 85.1663 88.783 81.7851C88.783 79.7087 88.2492 77.6721 87.2407 75.8925C88.1108 75.7937 88.783 75.062 88.783 74.1721C88.783 67.0932 83.0289 61.3391 75.95 61.3391H74.1111L70.7694 50.3253C71.3032 50.444 71.837 50.5232 72.4106 50.5232H74.9613C75.9104 50.5232 76.7014 49.7519 76.7014 48.7831V38.1844C76.7014 37.2353 75.9303 36.4443 74.9613 36.4443H72.4106C70.7298 36.4443 69.1875 37.0376 67.9813 38.0262V35.8314C67.9813 34.8823 67.2102 34.0913 66.2412 34.0913H52.3799C49.8885 34.0913 47.8716 36.1082 47.8716 38.5996C47.8716 41.0911 49.8885 43.108 52.3799 43.108H58.4901L60.3685 67.6272L54.1794 73.7965H40.8323L37.9256 61.6555H39.0922C41.4649 61.6555 43.383 59.7375 43.383 57.3648V53.4694C43.383 51.0965 41.4649 49.1785 39.0922 49.1785H26.4372C20.8611 49.1785 16.3329 53.7067 16.3329 59.2828V59.3222C6.8614 62.4069 0 71.305 0 81.7851C0 82.7341 0.771156 83.5251 1.74006 83.5251H9.49124C9.88681 86.2142 11.1523 88.6267 13.0109 90.4457H1.74006C0.771156 90.4457 0 91.217 0 92.1859ZM35.711 58.215H23.5701H19.8724C20.4062 55.0711 23.1349 52.6785 26.4173 52.6785H39.0724C39.5272 52.6785 39.9029 53.0542 39.9029 53.5088V57.4042C39.9029 57.859 39.5272 58.2347 39.0724 58.2347H35.711V58.215ZM64.5012 39.6477H60.0718H52.3602C51.7869 39.6477 51.3121 39.1732 51.3121 38.5996C51.3121 38.0262 51.7869 37.5517 52.3602 37.5517H64.5012V39.6477ZM69.0095 44.5713L68.9898 44.4922C68.8908 44.1758 68.8315 43.8396 68.8315 43.4836C68.8315 41.5262 70.4331 39.9246 72.3907 39.9246H73.2213V47.0429H72.3907C70.8088 47.0429 69.4643 45.995 69.0095 44.5713ZM67.9616 81.7851C67.9616 79.5703 68.7722 77.4941 70.275 75.8925H82.9893C84.4921 77.4941 85.3029 79.5703 85.3029 81.7851C85.3029 86.4911 81.5261 90.3469 76.8398 90.4457H76.4444C71.7382 90.3469 67.9616 86.4911 67.9616 81.7851ZM9.09585 80.045C9.94608 73.9548 15.1861 69.2486 21.5136 69.2486C22.4627 69.2486 23.2537 68.4775 23.2537 67.5085C23.2537 66.5396 22.4824 65.7685 21.5136 65.7685C13.2681 65.7685 6.46592 72.0168 5.5959 80.045H3.53945C4.42926 69.7627 13.0704 61.6754 23.5701 61.6754H34.3465L37.7673 75.9518C37.9453 76.723 38.6571 77.2765 39.4481 77.2765H54.8714C55.3262 77.2765 55.7612 77.0987 56.0975 76.7624L63.3542 69.5254C63.7102 69.1694 63.8882 68.6752 63.8683 68.1611L61.9503 43.1278H64.956L65.6678 45.4413C65.6875 45.5007 65.7074 45.56 65.7271 45.6193L71.1845 63.5539C71.4021 64.2854 72.0743 64.7798 72.8456 64.7798H75.9303C80.4979 64.7798 84.3143 68.0819 85.1446 72.4124H83.721H69.5632H66.0632C65.6084 72.4124 65.1537 72.5902 64.8373 72.9265L57.7188 80.045H9.09585ZM13.0109 83.5251H29.9964C29.2055 87.4205 25.8044 90.3667 21.7113 90.4457H21.3157C17.203 90.3469 13.8019 87.4006 13.0109 83.5251Z" fill="black"/>
<path d="M71.4419 81.7852C71.4419 84.6523 73.7752 86.9856 76.6423 86.9856C79.5095 86.9856 81.8428 84.6523 81.8428 81.7852C81.8428 78.9179 79.5095 76.5847 76.6423 76.5847C73.7752 76.5847 71.4419 78.9179 71.4419 81.7852ZM74.9023 81.7852C74.9023 80.8359 75.6734 80.0451 76.6423 80.0451C77.6113 80.0451 78.3824 80.8162 78.3824 81.7852C78.3824 82.7342 77.6113 83.5252 76.6423 83.5252C75.6734 83.5252 74.9023 82.7342 74.9023 81.7852Z" fill="black"/>
<path d="M79.1927 50.2661L80.9327 52.0061C81.269 52.3424 81.7237 52.5203 82.1588 52.5203C82.5938 52.5203 83.0486 52.3424 83.3847 52.0061C84.057 51.3339 84.057 50.2265 83.3847 49.5543L81.6447 47.8142C80.9723 47.142 79.8651 47.142 79.1927 47.8142C78.5204 48.5064 78.5204 49.5939 79.1927 50.2661Z" fill="black"/>
<path d="M79.2124 39.1139C79.5486 39.45 80.0034 39.628 80.4384 39.628C80.8733 39.628 81.3282 39.45 81.6643 39.1139L83.3847 37.3937C84.0569 36.7213 84.0569 35.6141 83.3847 34.9417C82.7122 34.2694 81.605 34.2694 80.9326 34.9417L79.2124 36.662C78.5203 37.3541 78.5203 38.4416 79.2124 39.1139Z" fill="black"/>
<path d="M29.2054 71.8983C29.2647 71.9575 29.3439 71.9971 29.4031 72.0367C29.68 72.1948 29.9964 72.2936 30.2929 72.2936C30.8862 72.2936 31.4596 71.9971 31.776 71.4434C32.2506 70.6723 32.033 69.6638 31.3015 69.1497C30.5501 68.6159 29.502 68.7344 28.9286 69.4661C28.3552 70.2175 28.4737 71.305 29.2054 71.8983Z" fill="black"/>
<path d="M131.958 0.995605H110.208C107.209 0.995605 104.77 3.43495 104.77 6.43329V28.1841C104.77 31.1824 107.209 33.6217 110.208 33.6217H119.271V80.3068H117.095C116.221 80.3068 115.471 80.9316 115.313 81.7919L113.5 91.6591C113.403 92.1882 113.546 92.7332 113.89 93.1467C114.234 93.5601 114.745 93.7992 115.283 93.7992H126.883C127.422 93.7992 127.932 93.5601 128.276 93.1467C128.62 92.7332 128.763 92.1882 128.666 91.6591L126.854 81.7917C126.696 80.9314 125.945 80.3067 125.071 80.3067H122.896V33.6217H131.958C134.957 33.6217 137.396 31.1824 137.396 28.1841V6.43329C137.396 3.43495 134.957 0.995605 131.958 0.995605ZM123.561 83.9318L124.708 90.1741H117.459L118.605 83.9318H123.561ZM133.771 28.1841C133.771 29.1835 132.958 29.9966 131.958 29.9966H110.208C109.208 29.9966 108.395 29.1835 108.395 28.1841V6.43329C108.395 5.43385 109.208 4.62073 110.208 4.62073H131.958C132.958 4.62073 133.771 5.43385 133.771 6.43329V28.1841Z" fill="black"/>
<path d="M121.083 8.76831H117.029C116.028 8.76831 115.216 9.5798 115.216 10.5809V18.6896V24.0366C115.216 25.0377 116.028 25.8492 117.029 25.8492C118.03 25.8492 118.841 25.0377 118.841 24.0366V20.5021H121.083C124.318 20.5021 126.95 17.8701 126.95 14.6352C126.95 11.4003 124.318 8.76831 121.083 8.76831ZM121.083 16.8772H118.841V12.3934H121.083C122.319 12.3934 123.325 13.399 123.325 14.6352C123.325 15.8714 122.319 16.8772 121.083 16.8772Z" fill="black"/>
</svg>
