<svg width="101" height="102" viewBox="0 0 101 102" fill="none" xmlns="http://www.w3.org/2000/svg">
<path d="M36.7273 58.4182C32.32 59.16 29.9939 63.0545 29.3818 64.9091L33.9727 67.6909C38.5637 68 48.48 68.0618 51.4182 65.8363C54.3564 63.6109 52.6425 59.9636 51.4182 58.4182C48.3575 58.109 41.1346 57.6763 36.7273 58.4182Z" fill="white"/>
<path d="M31.8979 9.36324L34.3835 6.21558L52.236 17.6109C52.236 17.6109 52.5122 19.0851 52.4531 20.3601C52.394 21.6351 51.3878 24.4241 51.3878 24.4241L48.0146 22.4917L48.3696 20.1609L31.8979 9.36324Z" fill="white"/>
<path d="M22.5475 17.2922L20.8511 17.87L3.88623 46.9957V48.8484L16.7085 56.6978L18.7995 57.375L20.8511 55.343L37.4608 27.2333L36.3955 25.0219L35.8432 22.5715L36.3955 19.6629L35.4487 17.2922L29.5308 13.9055C29.5308 13.9055 28.4852 14.045 28.3471 14.2442C28.209 14.4434 26.3154 15.3 26.3154 15.3L24.9936 16.8938L22.5475 17.2922Z" fill="white"/>
<path d="M16.7084 31.9347L19.4109 33.0903L21.5611 31.5364L23.8298 31.9746L24.4413 33.0903V35.6004L25.8024 37.7719L24.1651 41.2382L21.2653 39.7442L19.6081 41.6965L16.1166 39.6048L17.2607 37.7719L15.584 35.2618L16.7084 31.9347Z" fill="#EE7F22"/>
<path d="M47.6399 67.615H38.9405C38.9405 67.615 28.071 66.2802 23.8496 69.4079C19.6282 72.5356 15.0121 79.2693 14.2231 81.7993C13.434 84.3294 13.2959 89.1307 13.2959 89.1307L25.8222 88.8716L60.6199 88.9513L70.503 89.1307L76.4998 82.1978L98.4556 80.4048C98.4556 80.4048 98.0018 73.6114 93.7804 72.3563C89.5587 71.1013 85.3373 70.0255 85.3373 70.0255L80.4649 60.5028L76.8351 49.3267C76.8351 49.3267 73.0871 48.4501 72.87 48.6294C72.6728 48.8087 71.154 51.4583 71.154 52.3947C71.154 53.3309 71.5484 65.8418 71.5484 65.8418L73.4619 74.4879C73.4619 74.4879 68.8458 79.7474 68.6486 79.9466C68.4514 80.1457 63.1843 83.0145 63.1843 83.0145L50.9145 81.9984C50.9145 81.9984 48.0738 74.2689 48.0738 73.7509C48.0738 73.2329 47.6399 67.615 47.6399 67.615Z" fill="#EE7F22"/>
<path d="M73.442 42.6128L60.9551 43.8679L62.9277 47.2746L75.7894 47.5934L77.0716 46.1192L76.5192 43.2304L73.442 42.6128Z" fill="#EE7F22"/>
<path d="M11.4414 99.4302C11.4414 100.386 12.2107 101.183 13.1773 101.183H32.6869C32.746 101.183 32.825 101.183 32.8841 101.183C32.9434 101.183 33.0222 101.183 33.0814 101.183H49.9081C50.8551 101.183 51.6441 100.406 51.6441 99.4302C51.6441 98.454 50.8748 97.6769 49.9081 97.6769H41.3667C43.2208 95.8443 44.5032 93.4137 44.878 90.7044H69.7333C70.1871 90.7044 70.6409 90.5251 70.9564 90.1864L76.6573 84.4488C76.1051 85.8633 75.7895 87.3974 75.7895 88.9513C75.7895 92.3579 77.1901 95.4658 79.4389 97.6769H63.2827C62.3359 97.6769 61.5468 98.454 61.5468 99.4302C61.5468 100.406 62.3163 101.183 63.2827 101.183H87.7044C87.7635 101.183 87.8425 101.183 87.9016 101.183C87.9607 101.183 88.0397 101.183 88.0988 101.183H98.2778C99.2246 101.183 100.014 100.406 100.014 99.4302C100.014 98.454 99.2443 97.6769 98.2778 97.6769H96.3643C98.6131 95.4658 100.014 92.3579 100.014 88.9513C100.014 86.8594 99.4811 84.8075 98.475 83.0145C99.343 82.9149 100.014 82.1778 100.014 81.2813C100.014 74.1492 94.2732 68.3519 87.2111 68.3519H85.3766L82.0429 57.2555C82.5754 57.3751 83.1079 57.4548 83.6802 57.4548H86.2248C87.1716 57.4548 87.9607 56.6778 87.9607 55.7017V45.0234C87.9607 44.0672 87.1915 43.2703 86.2248 43.2703H83.6802C82.0034 43.2703 80.4647 43.868 79.2613 44.8641V42.6528C79.2613 41.6966 78.4921 40.8997 77.5254 40.8997H63.697C61.2115 40.8997 59.1994 42.9317 59.1994 45.4418C59.1994 47.9519 61.2115 49.984 63.697 49.984H69.7927L71.6667 74.6873L65.4923 80.9028H52.1768L49.277 68.6707H50.4409C52.8079 68.6707 54.7214 66.7383 54.7214 64.3478V60.4232C54.7214 58.0325 52.8079 56.1001 50.4409 56.1001H37.8159C32.253 56.1001 27.7355 60.6623 27.7355 66.2802V66.3199C18.2865 69.4278 11.4414 78.3926 11.4414 88.9513C11.4414 89.9075 12.2107 90.7044 13.1773 90.7044H20.9101C21.3048 93.4137 22.5673 95.8443 24.4214 97.6769H13.1773C12.2107 97.6769 11.4414 98.454 11.4414 99.4302ZM47.0676 65.2044H34.9555H31.2667C31.7992 62.0368 34.5214 59.6263 37.796 59.6263H50.421C50.8748 59.6263 51.2496 60.0048 51.2496 60.4629V64.3875C51.2496 64.8457 50.8748 65.2242 50.421 65.2242H47.0676V65.2044ZM75.7895 46.4978H71.3706H63.6774C63.1054 46.4978 62.6317 46.0197 62.6317 45.4418C62.6317 44.8641 63.1054 44.386 63.6774 44.386H75.7895V46.4978ZM80.2871 51.4583L80.2675 51.3786C80.1687 51.0598 80.1095 50.7211 80.1095 50.3625C80.1095 48.3904 81.7073 46.7767 83.6603 46.7767H84.4889V53.9484H83.6603C82.0821 53.9484 80.7409 52.8926 80.2871 51.4583ZM79.2417 88.9513C79.2417 86.7199 80.0504 84.6282 81.5496 83.0145H94.2337C95.7329 84.6282 96.5419 86.7199 96.5419 88.9513C96.5419 93.6926 92.774 97.5774 88.0988 97.6769H87.7044C83.0093 97.5774 79.2417 93.6926 79.2417 88.9513ZM20.5157 87.1982C21.3639 81.0623 26.5915 76.3207 32.904 76.3207C33.8508 76.3207 34.6399 75.5439 34.6399 74.5676C34.6399 73.5914 33.8704 72.8145 32.904 72.8145C24.678 72.8145 17.892 79.1098 17.024 87.1982H14.9725C15.8602 76.8387 24.4807 68.6908 34.9555 68.6908H45.7064L49.119 83.0742C49.2966 83.8513 50.0068 84.409 50.7958 84.409H66.1825C66.6363 84.409 67.0702 84.2298 67.4057 83.891L74.6452 76.5997C75.0004 76.241 75.178 75.743 75.1581 75.2251L73.2447 50.004H76.2432L76.9534 52.3348C76.973 52.3947 76.9929 52.4544 77.0125 52.5141L82.457 70.5833C82.674 71.3203 83.3447 71.8185 84.1141 71.8185H87.1915C91.7482 71.8185 95.5555 75.1453 96.3839 79.5083H94.9637H80.8395H77.3478C76.8941 79.5083 76.4405 79.6875 76.1248 80.0263L69.0232 87.1982H20.5157ZM24.4214 90.7044H41.3667C40.5776 94.629 37.1845 97.5974 33.1012 97.6769H32.7066C28.6036 97.5774 25.2105 94.609 24.4214 90.7044Z" fill="black"/>
<path d="M54.8594 99.4303C54.8594 99.8884 55.0369 100.347 55.3723 100.665C55.6879 100.984 56.1417 101.183 56.5953 101.183C57.0491 101.183 57.5028 101.004 57.8183 100.665C58.134 100.347 58.3312 99.8884 58.3312 99.4303C58.3312 98.972 58.1538 98.5138 57.8183 98.195C57.5028 97.8764 57.0491 97.677 56.5953 97.677C56.1417 97.677 55.6879 97.8563 55.3723 98.195C55.0369 98.5138 54.8594 98.972 54.8594 99.4303Z" fill="black"/>
<path d="M82.7134 88.9511C82.7134 91.8398 85.0412 94.1906 87.9015 94.1906C90.7618 94.1906 93.0896 91.8398 93.0896 88.9511C93.0896 86.0623 90.7618 83.7117 87.9015 83.7117C85.0412 83.7117 82.7134 86.0623 82.7134 88.9511ZM86.1656 88.9511C86.1656 87.9948 86.9348 87.198 87.9015 87.198C88.8681 87.198 89.6374 87.9749 89.6374 88.9511C89.6374 89.9074 88.8681 90.7042 87.9015 90.7042C86.9348 90.7042 86.1656 89.9074 86.1656 88.9511Z" fill="black"/>
<path d="M91.5903 50.3627C91.5903 51.3189 92.3596 52.1158 93.3262 52.1158H98.2776C99.2245 52.1158 100.014 51.3387 100.014 50.3627C100.014 49.4063 99.2441 48.6094 98.2776 48.6094H93.3262C92.3794 48.6094 91.5903 49.3864 91.5903 50.3627Z" fill="black"/>
<path d="M90.4463 57.1957L92.1823 58.9488C92.5178 59.2877 92.9713 59.4668 93.4055 59.4668C93.8394 59.4668 94.2931 59.2877 94.6285 58.9488C95.2991 58.2716 95.2991 57.1559 94.6285 56.4786L92.8926 54.7255C92.2217 54.0482 91.1172 54.0482 90.4463 54.7255C89.7757 55.4228 89.7757 56.5185 90.4463 57.1957Z" fill="black"/>
<path d="M90.4661 45.9598C90.8014 46.2984 91.2552 46.4777 91.6891 46.4777C92.123 46.4777 92.5768 46.2984 92.9121 45.9598L94.6284 44.2267C95.299 43.5492 95.299 42.4337 94.6284 41.7563C93.9576 41.079 92.853 41.079 92.1822 41.7563L90.4661 43.4895C89.7756 44.1868 89.7756 45.2825 90.4661 45.9598Z" fill="black"/>
<path d="M40.5774 78.9902C40.6366 79.0499 40.7155 79.0898 40.7747 79.1297C41.0509 79.289 41.3665 79.3886 41.6624 79.3886C42.2542 79.3886 42.8263 79.0898 43.1419 78.5319C43.6153 77.7551 43.3983 76.739 42.6685 76.221C41.9189 75.6832 40.8733 75.8026 40.3013 76.5398C39.7292 77.2968 39.8475 78.3925 40.5774 78.9902Z" fill="black"/>
<path d="M45.6276 28.9664C45.1147 29.604 44.227 30.8988 44.1679 32.2934C44.1284 33.3294 44.5032 34.3653 45.1937 35.1422C45.884 35.8992 46.831 36.3575 47.8369 36.3974H47.8568C48.8431 36.4372 49.8294 36.0786 50.579 35.3813C51.3482 34.6841 51.8216 33.668 51.8611 32.6521C51.9203 31.2575 51.1707 29.9028 50.6972 29.2056C50.1056 28.329 49.2179 27.2732 48.2316 27.2333C47.2649 27.1736 46.2786 28.1497 45.6276 28.9664ZM47.0873 33.3891C46.8506 33.1302 46.7125 32.7716 46.7322 32.4129C46.7717 31.6559 47.5607 30.5802 48.1328 30.0422C48.6457 30.6199 49.3361 31.7755 49.3165 32.5127C49.2966 32.8711 49.1389 33.2098 48.8627 33.4488C48.6064 33.6879 48.2907 33.8075 47.975 33.7877C47.6199 33.7877 47.324 33.6282 47.0873 33.3891Z" fill="black"/>
<path d="M19.7857 17.9298L2.82088 45.9598C1.91346 47.454 2.38689 49.4263 3.86639 50.3426L16.4519 58.1123C17.9314 59.0286 19.8843 58.5505 20.7918 57.0563L37.7565 29.0263C38.2301 28.2294 38.5061 27.3129 38.526 26.3767C38.526 25.9982 38.3484 25.6395 38.0131 25.4404C37.9932 25.4404 36.7506 24.5238 37.2436 23.7269C37.5397 23.229 37.3817 22.5716 36.8887 22.2728L37.4411 21.3563C38.3484 19.8622 37.875 17.8899 36.3954 16.9735L37.6778 14.8419L47.5804 20.9579L47.0282 21.8742C46.7321 22.3724 46.8901 23.0298 47.3831 23.3286L50.9734 25.5399C51.4666 25.8387 52.1176 25.6794 52.4135 25.1813L53.518 23.3685C54.248 22.1532 54.4651 20.7189 54.1494 19.3443C53.8141 17.9696 52.9855 16.7942 51.7821 16.0571L34.7186 5.4985C34.2256 5.19967 33.5746 5.35905 33.2788 5.85709L31.0891 9.48288C30.7931 9.98091 30.951 10.6384 31.444 10.9372L32.3516 11.495L31.0692 13.6266C29.5899 12.7102 27.6369 13.1884 26.7295 14.6825L26.1772 15.5989C25.6839 15.3001 25.0329 15.4594 24.7371 15.9575C24.2438 16.7743 22.8827 16.0571 22.8827 16.0571C22.5672 15.8579 22.153 15.8579 21.8373 16.0372C20.9692 16.4755 20.2789 17.1329 19.7857 17.9298ZM33.4168 9.70201L34.5214 7.88912L50.717 17.8899C51.4272 18.3282 51.9401 19.0255 52.1373 19.8622C52.3345 20.6988 52.1964 21.5554 51.7625 22.2728L51.2101 23.1891L49.4151 22.0734L49.9674 21.1571C50.2633 20.659 50.1054 20.0017 49.6123 19.7028L33.4168 9.70201ZM35.922 13.7262L34.6399 15.8579L32.8446 14.7423L34.127 12.6106L35.922 13.7262ZM27.9327 16.7145L28.4851 15.7981C28.7809 15.3001 29.4319 15.1407 29.9252 15.4395L35.3303 18.7664C35.8234 19.0653 35.9811 19.7228 35.6853 20.2207L35.1329 21.1372L27.9327 16.7145ZM33.5549 31.9348L30.3986 29.9825C29.9055 29.6837 29.2545 29.843 28.9585 30.3412C28.6627 30.8391 28.8204 31.4966 29.3137 31.7953L32.4698 33.7478L23.6718 48.2908L9.27145 39.4054L18.0695 24.8625L21.2258 26.8149C21.7188 27.1137 22.3698 26.9544 22.6659 26.4563C22.9617 25.9583 22.8039 25.3009 22.3107 25.0019L19.1545 23.0497L21.5807 19.0255C21.7782 18.6868 22.0345 18.4079 22.3305 18.1688C23.376 18.5872 24.7567 18.647 25.7629 17.87L35.0738 23.6273C34.8371 24.9023 35.5276 26.0978 36.3758 26.8548C36.2968 27.2333 36.1587 27.5918 35.9615 27.9304L33.5549 31.9348ZM8.16677 41.2383L22.5672 50.1234L19.0361 55.9606C18.7403 56.4587 18.0892 56.618 17.5961 56.3193L5.01052 48.5497C4.51737 48.2509 4.35955 47.5935 4.65544 47.0953L8.16677 41.2383Z" fill="black"/>
<path d="M27.0059 36.6364L25.2107 35.5207L26.3155 33.7079C26.6113 33.2097 26.4536 32.5523 25.9603 32.2535L22.37 30.0422C21.877 29.7434 21.226 29.9027 20.9302 30.4008L19.8254 32.2137L18.0303 31.0982C17.5371 30.7992 16.8861 30.9587 16.5902 31.4566L14.4006 35.0825C14.1047 35.5804 14.2625 36.2378 14.7557 36.5368L16.5508 37.6523L15.4461 39.4653C15.1502 39.9633 15.308 40.6207 15.8012 40.9195L19.3915 43.1308C19.8845 43.4298 20.5355 43.2703 20.8314 42.7723L21.9361 40.9593L23.7312 42.075C24.2244 42.3738 24.8754 42.2145 25.1712 41.7164L27.3609 38.0907C27.6568 37.5926 27.499 36.9352 27.0059 36.6364ZM23.9087 39.7242L22.1137 38.6087C21.6204 38.3097 20.9695 38.4692 20.6736 38.9672L19.5689 40.7802L17.7738 39.6645L18.8786 37.8517C19.1744 37.3535 19.0167 36.6961 18.5234 36.3973L16.7283 35.2816L17.833 33.4688L19.6282 34.5843C20.1212 34.8833 20.7722 34.7238 21.0682 34.2258L22.1728 32.4128L23.9681 33.5285L22.8633 35.3414C22.5675 35.8395 22.7252 36.4969 23.2184 36.7957L25.0135 37.9114L23.9087 39.7242Z" fill="black"/>
<path d="M26.7099 28.9664C27.0057 28.4684 26.8479 27.811 26.3549 27.5122C25.8616 27.2133 25.2106 27.3728 24.9148 27.8707C24.6188 28.3688 24.7767 29.0263 25.2698 29.3251C25.7432 29.6238 26.3942 29.4645 26.7099 28.9664Z" fill="black"/>
</svg>
