<svg width="55" height="83" viewBox="0 0 55 83" fill="none" xmlns="http://www.w3.org/2000/svg">
<mask id="mask0" mask-type="alpha" maskUnits="userSpaceOnUse" x="8" y="16" width="44" height="46">
<rect x="8.14795" y="16.7505" width="43.4143" height="44.3188" fill="#C4C4C4"/>
</mask>
<g mask="url(#mask0)">
<path d="M46.0688 29.5231C48.3947 29.9108 49.6223 31.946 49.9453 32.9151L47.5225 34.3688C45.0997 34.5303 39.8664 34.5626 38.3158 33.3996C36.7652 32.2367 37.6697 30.3307 38.3158 29.5231C39.931 29.3616 43.7429 29.1355 46.0688 29.5231Z" fill="white"/>
<path d="M40.3103 34.3289H44.9013C44.9013 34.3289 50.6376 33.6314 52.8654 35.2659C55.0932 36.9003 57.5293 40.4191 57.9458 41.7412C58.3622 43.0634 58.4351 45.5723 58.4351 45.5723L51.8244 45.4369L33.4602 45.4786L28.2444 45.5723L25.0797 41.9494L13.4927 41.0125C13.4927 41.0125 13.7322 37.4625 15.96 36.8066C18.1879 36.1508 20.4157 35.5886 20.4157 35.5886L22.9871 30.6123L24.9027 24.7721C24.9027 24.7721 26.8807 24.3139 26.9952 24.4077C27.0993 24.5014 27.9009 25.886 27.9009 26.3753C27.9009 26.8645 27.6927 33.4023 27.6927 33.4023L26.6829 37.9205C26.6829 37.9205 29.119 40.6689 29.2231 40.773C29.3272 40.8771 32.1068 42.3762 32.1068 42.3762L38.5821 41.8453C38.5821 41.8453 40.0813 37.806 40.0813 37.5354C40.0813 37.2647 40.3103 34.3289 40.3103 34.3289Z" fill="#EE7F22"/>
<path d="M26.6933 21.2639L33.2832 21.9198L32.2422 23.7L25.4545 23.8666L24.7779 23.0962L25.0694 21.5866L26.6933 21.2639Z" fill="#EE7F22"/>
<path d="M59.4136 50.9544C59.4136 51.4541 59.0076 51.8705 58.4974 51.8705H48.2014C48.1702 51.8705 48.1285 51.8705 48.0973 51.8705C48.066 51.8705 48.0245 51.8705 47.9933 51.8705H39.113C38.6133 51.8705 38.1969 51.4645 38.1969 50.9544C38.1969 50.4443 38.6029 50.0382 39.113 50.0382H43.6207C42.6422 49.0805 41.9655 47.8104 41.7677 46.3946H28.6504C28.411 46.3946 28.1715 46.3009 28.005 46.1239L24.9963 43.1256C25.2878 43.8648 25.4543 44.6664 25.4543 45.4785C25.4543 47.2586 24.7152 48.8827 23.5284 50.0382H32.0547C32.5544 50.0382 32.9708 50.4443 32.9708 50.9544C32.9708 51.4645 32.5647 51.8705 32.0547 51.8705H19.1664C19.1352 51.8705 19.0935 51.8705 19.0623 51.8705C19.0311 51.8705 18.9894 51.8705 18.9582 51.8705H13.5863C13.0866 51.8705 12.6702 51.4645 12.6702 50.9544C12.6702 50.4443 13.0763 50.0382 13.5863 50.0382H14.5961C13.4094 48.8827 12.6702 47.2586 12.6702 45.4785C12.6702 44.3853 12.9512 43.313 13.4822 42.3761C13.0241 42.324 12.6702 41.9388 12.6702 41.4703C12.6702 37.7434 15.6997 34.7139 19.4267 34.7139H20.3948L22.1542 28.9152C21.8731 28.9777 21.5921 29.0194 21.2901 29.0194H19.9472C19.4475 29.0194 19.0311 28.6133 19.0311 28.1033V22.5231C19.0311 22.0234 19.437 21.607 19.9472 21.607H21.2901C22.175 21.607 22.987 21.9194 23.6221 22.4399V21.2843C23.6221 20.7846 24.0281 20.3682 24.5382 20.3682H31.8361C33.1478 20.3682 34.2096 21.43 34.2096 22.7418C34.2096 24.0535 33.1478 25.1153 31.8361 25.1153H28.6191L27.6301 38.0245L30.8886 41.2725H37.9158L39.4461 34.8805H38.8319C37.5827 34.8805 36.5729 33.8706 36.5729 32.6214V30.5706C36.5729 29.3213 37.5827 28.3114 38.8319 28.3114H45.4946C48.4304 28.3114 50.8145 30.6955 50.8145 33.6313V33.652C55.8011 35.2761 59.4136 39.9608 59.4136 45.4785C59.4136 45.9781 59.0076 46.3946 58.4974 46.3946H54.4165C54.2083 47.8104 53.542 49.0805 52.5635 50.0382H58.4974C59.0076 50.0382 59.4136 50.4443 59.4136 50.9544ZM40.6121 33.0691H47.0042H48.9509C48.6699 31.4138 47.2333 30.1541 45.5051 30.1541H38.8424C38.6029 30.1541 38.4051 30.3519 38.4051 30.5913V32.6422C38.4051 32.8816 38.6029 33.0794 38.8424 33.0794H40.6121V33.0691ZM25.4543 23.2936H27.7864H31.8464C32.1483 23.2936 32.3982 23.0437 32.3982 22.7418C32.3982 22.4399 32.1483 22.19 31.8464 22.19H25.4543V23.2936ZM23.0808 25.8858L23.0911 25.8441C23.1433 25.6775 23.1745 25.5006 23.1745 25.3131C23.1745 24.2826 22.3312 23.4393 21.3006 23.4393H20.8633V27.187H21.3006C22.1334 27.187 22.8413 26.6353 23.0808 25.8858ZM23.6325 45.4785C23.6325 44.3124 23.2057 43.2193 22.4145 42.3761H15.7205C14.9293 43.2193 14.5024 44.3124 14.5024 45.4785C14.5024 47.9561 16.4909 49.9862 18.9582 50.0382H19.1664C21.6441 49.9862 23.6325 47.9561 23.6325 45.4785ZM54.6247 44.5623C54.1771 41.3559 51.4182 38.8781 48.0869 38.8781C47.5872 38.8781 47.1708 38.4721 47.1708 37.962C47.1708 37.4518 47.5768 37.0459 48.0869 37.0459C52.4281 37.0459 56.0093 40.3356 56.4674 44.5623H57.5501C57.0816 39.1488 52.5322 34.8909 47.0042 34.8909H41.3305L39.5295 42.4073C39.4358 42.8133 39.061 43.1048 38.6446 43.1048H30.5243C30.2849 43.1048 30.0559 43.0111 29.8788 42.8341L26.0582 39.0239C25.8708 38.8364 25.7771 38.5762 25.7875 38.3055L26.7974 25.1258H25.2149L24.8401 26.3438C24.8297 26.3751 24.8193 26.4063 24.8089 26.4375L21.9356 35.8799C21.8211 36.2651 21.4672 36.5254 21.0611 36.5254H19.437C17.0322 36.5254 15.023 38.2639 14.5858 40.5438H15.3353H22.7892H24.632C24.8714 40.5438 25.1108 40.6375 25.2774 40.8145L29.0252 44.5623H54.6247ZM52.5635 46.3946H43.6207C44.0372 48.4454 45.8278 49.9966 47.9828 50.0382H48.1911C50.3564 49.9862 52.147 48.435 52.5635 46.3946Z" fill="black"/>
<path d="M36.5 50.9548C36.5 51.1942 36.4063 51.4336 36.2293 51.6002C36.0627 51.7667 35.8233 51.8709 35.5839 51.8709C35.3444 51.8709 35.1049 51.7772 34.9384 51.6002C34.7719 51.4336 34.6678 51.1942 34.6678 50.9548C34.6678 50.7153 34.7614 50.4758 34.9384 50.3093C35.1049 50.1428 35.3444 50.0386 35.5839 50.0386C35.8233 50.0386 36.0627 50.1323 36.2293 50.3093C36.4063 50.4758 36.5 50.7153 36.5 50.9548Z" fill="black"/>
<path d="M21.8003 45.4787C21.8003 46.9882 20.5718 48.2167 19.0623 48.2167C17.5528 48.2167 16.3243 46.9882 16.3243 45.4787C16.3243 43.9691 17.5528 42.7407 19.0623 42.7407C20.5718 42.7407 21.8003 43.9691 21.8003 45.4787ZM19.9784 45.4787C19.9784 44.9789 19.5725 44.5626 19.0623 44.5626C18.5522 44.5626 18.1462 44.9686 18.1462 45.4787C18.1462 45.9784 18.5522 46.3948 19.0623 46.3948C19.5725 46.3948 19.9784 45.9784 19.9784 45.4787Z" fill="black"/>
<path d="M17.1152 25.3134C17.1152 25.8131 16.7093 26.2295 16.1991 26.2295H13.5861C13.0864 26.2295 12.6699 25.8235 12.6699 25.3134C12.6699 24.8137 13.076 24.3972 13.5861 24.3972H16.1991C16.6988 24.3972 17.1152 24.8033 17.1152 25.3134Z" fill="black"/>
<path d="M17.7194 28.8842L16.8033 29.8003C16.6262 29.9774 16.3869 30.071 16.1578 30.071C15.9288 30.071 15.6893 29.9774 15.5123 29.8003C15.1584 29.4464 15.1584 28.8634 15.5123 28.5094L16.4284 27.5933C16.7825 27.2394 17.3654 27.2394 17.7194 27.5933C18.0733 27.9577 18.0733 28.5303 17.7194 28.8842Z" fill="black"/>
<path d="M17.7086 23.0126C17.5317 23.1896 17.2922 23.2833 17.0632 23.2833C16.8342 23.2833 16.5947 23.1896 16.4178 23.0126L15.512 22.107C15.1581 21.7529 15.1581 21.17 15.512 20.816C15.866 20.4621 16.449 20.4621 16.803 20.816L17.7086 21.7217C18.073 22.0861 18.073 22.6587 17.7086 23.0126Z" fill="black"/>
<path d="M44.0371 40.2739C44.0059 40.3051 43.9642 40.3259 43.933 40.3467C43.7873 40.43 43.6207 40.482 43.4645 40.482C43.1522 40.482 42.8503 40.3259 42.6837 40.0344C42.4339 39.6284 42.5484 39.0974 42.9335 38.8268C43.3291 38.5457 43.881 38.6081 44.1829 38.9933C44.4847 39.3889 44.4223 39.9615 44.0371 40.2739Z" fill="black"/>
</g>
<path d="M34.375 10.3125H20.625C17.7822 10.3125 15.4688 7.99906 15.4688 5.15625C15.4688 4.2075 14.6988 3.4375 13.75 3.4375H10.3125C9.36375 3.4375 8.59375 2.6675 8.59375 1.71875C8.59375 0.77 9.36375 0 10.3125 0H13.75C16.5928 0 18.9063 2.31344 18.9063 5.15625C18.9063 6.105 19.6763 6.875 20.625 6.875H34.375C35.3238 6.875 36.0938 6.105 36.0938 5.15625C36.0938 2.31344 38.4072 0 41.25 0H44.6875C45.6363 0 46.4063 0.77 46.4063 1.71875C46.4063 2.6675 45.6363 3.4375 44.6875 3.4375H41.25C40.3013 3.4375 39.5313 4.2075 39.5313 5.15625C39.5313 7.99906 37.2178 10.3125 34.375 10.3125Z" fill="black"/>
<path d="M46.4062 82.5H8.59375C3.85687 82.5 0 78.6431 0 73.9062V8.59375C0 3.85687 3.85687 0 8.59375 0H46.4062C51.1431 0 55 3.85687 55 8.59375V22.3438C55 23.2925 54.23 24.0625 53.2812 24.0625C52.3325 24.0625 51.5625 23.2925 51.5625 22.3438V8.59375C51.5625 5.75094 49.2491 3.4375 46.4062 3.4375H8.59375C5.75094 3.4375 3.4375 5.75094 3.4375 8.59375V73.9062C3.4375 76.7491 5.75094 79.0625 8.59375 79.0625H46.4062C49.2491 79.0625 51.5625 76.7491 51.5625 73.9062V60.1562C51.5625 59.2075 52.3325 58.4375 53.2812 58.4375C54.23 58.4375 55 59.2075 55 60.1562V73.9062C55 78.6431 51.1431 82.5 46.4062 82.5Z" fill="black"/>
<line x1="53.3081" y1="18.5303" x2="53.3081" y2="71.3818" stroke="black" stroke-width="3.38379"/>
<line x1="1.28906" y1="65.8228" x2="51.5625" y2="65.8228" stroke="black" stroke-width="3.38379"/>
<rect x="25.459" y="71.0596" width="4.35059" height="4.35059" fill="black"/>
</svg>
